<?xml version="1.0" encoding="UTF-8" standalone="no"?>
<svg
   viewBox="0 0 500 500"
   width="100%"
   height="100%"
   version="1.1"
   id="svg8"
   sodipodi:docname="ico-svg.svg"
   inkscape:version="1.4.3 (1:1.4.3+202512261035+0d15f75042)"
   xmlns:inkscape="http://www.inkscape.org/namespaces/inkscape"
   xmlns:sodipodi="http://sodipodi.sourceforge.net/DTD/sodipodi-0.dtd"
   xmlns="http://www.w3.org/2000/svg"
   xmlns:svg="http://www.w3.org/2000/svg">
  <sodipodi:namedview
     id="namedview8"
     pagecolor="#ffffff"
     bordercolor="#000000"
     borderopacity="0.25"
     inkscape:showpageshadow="2"
     inkscape:pageopacity="0.0"
     inkscape:pagecheckerboard="0"
     inkscape:deskcolor="#d1d1d1"
     inkscape:zoom="0.63498189"
     inkscape:cx="308.67022"
     inkscape:cy="392.92459"
     inkscape:window-width="1294"
     inkscape:window-height="699"
     inkscape:window-x="0"
     inkscape:window-y="0"
     inkscape:window-maximized="1"
     inkscape:current-layer="svg8" />
  <defs
     id="defs1">
    <style
       id="style1">
      .bg { fill: #152638; }
      .white-stroke { fill: none; stroke: #ffffff; stroke-width: 18; stroke-linecap: round; stroke-linejoin: round; }
      .white-fill { fill: #ffffff; }
      .orange-fill { fill: #f9a01b; }
    </style>
  </defs>
  <rect
     class="bg"
     width="500"
     height="500"
     rx="80"
     id="rect1" />
  <path
     class="white-stroke"
     d="M 433.93813,95.080448 V 400.48073"
     id="path1"
     style="stroke-width:15.4542;stroke-dasharray:none" />
  <rect
     class="white-stroke"
     x="111.97979"
     y="61.06004"
     width="292.14813"
     height="370.00568"
     rx="30.432098"
     id="rect2"
     style="stroke-width:27.279;stroke-dasharray:none" />
  <g
     class="white-stroke"
     id="g6"
     transform="matrix(0.65911988,0,0,1.1054856,17.483513,-50.037591)">
    <path
       d="m 140,120 h -40 a 20,20 0 0 0 0,40 h 40"
       id="path2" />
    <path
       d="m 140,185 h -40 a 20,20 0 0 0 0,40 h 40"
       id="path3" />
    <path
       d="m 140,250 h -40 a 20,20 0 0 0 0,40 h 40"
       id="path4" />
    <path
       d="m 140,315 h -40 a 20,20 0 0 0 0,40 h 40"
       id="path5" />
    <path
       d="m 140,380 h -40 a 20,20 0 0 0 0,40 h 40"
       id="path6" />
  </g>
  <path
     class="white-fill"
     fill-rule="evenodd"
     d="m 254.33312,152.90834 c -50.10417,1.14762 -89.1862,41.36814 -87.80942,95.40898 1.3768,54.04084 42.48264,89.52595 92.56563,91.27759 35.2,1.23111 56.6294,-4.68833 83.05973,-13.88593 7.32113,-2.5477 6.1312,-15.29273 3.52777,-20.5879 -2.40361,-4.88878 -2.93165,-17.88466 -14.46827,-13.90874 -38.82125,13.37915 -42.41837,15.07533 -68.45874,15.09686 -35.12013,0.0291 -46.51727,-18.71026 -52.27867,-48.07232 l 136.67792,-4.22533 C 345.64712,195.05789 309.44772,151.64598 254.33312,152.90834 Z m -42.35751,75.42953 c 7.16723,-36.56402 28.52726,-42.05723 44.85988,-42.05608 17.36461,0.001 37.39516,6.30979 43.28173,40.58466 z"
     id="path7"
     sodipodi:nodetypes="sssssssccscscc"
     style="stroke-width:0.992564" />
  <path
     class="orange-fill"
     d="m 241.93025,346.46082 c 31.97859,14.53882 87.40102,18.57514 108.06541,0 20.73087,-16.96803 41.16777,10.90716 20.58388,32.72146 -30.87582,27.26789 -62.34886,12.31801 -93.22468,-4.04272 -25.72987,-16.36073 -35.42461,-28.67874 -35.42461,-28.67874 z"
     id="path8"
     style="stroke-width:1.05951"
     sodipodi:nodetypes="ccccc" />
</svg>
